<svg xmlns="http://www.w3.org/2000/svg" width="128" height="128" viewBox="0 0 48 48"><defs><mask id="IconifyId1958b3636f9d187ce2"><g fill="none" stroke-linecap="round" stroke-linejoin="round" stroke-width="4"><path fill="#fff" stroke="#fff" d="M42 4H6a2 2 0 0 0-2 2v36a2 2 0 0 0 2 2h36a2 2 0 0 0 2-2V6a2 2 0 0 0-2-2"/><path stroke="#000" d="m10 22l28-10"/><path stroke="#000" stroke-dasharray="2 6" d="m10 29l28-10"/><path stroke="#000" d="m10 36l28-10m-22-7l-3-8m24 25l-3-8"/></g></mask></defs><path fill="#0284c7" d="M0 0h48v48H0z" mask="url(#IconifyId1958b3636f9d187ce2)"/></svg>